<svg xmlns="http://www.w3.org/2000/svg" xmlns:xlink="http://www.w3.org/1999/xlink" x="0" y="0" enable-background="new 0 0 100 100" version="1.1" viewBox="0 0 100 100" xml:space="preserve"><g><polygon fill="none" points="53.164 52.326 53.146 58.794 87.432 38.869 87.451 32.292 82.242 35.32 53.164 52.218"/><polygon fill="none" points="13.465 37.524 13.465 37.524 50.333 58.81 50.343 55.267 50.351 52.218 12.563 30.401 12.545 36.993"/><polygon fill="none" points="51.758 49.782 58.964 45.594 86.058 29.848 48.27 8.032 13.97 27.965"/><polygon fill="none" points="48.661 74.928 48.7 61.115 14.162 41.174 14.077 71.221 48.615 91.162"/><path fill="none" d="M52.436,62.459c-0.001,0-0.001,0.001-0.002,0.002c-0.069,0.04-0.144,0.062-0.217,0.089 c-0.042,0.015-0.08,0.039-0.123,0.051c-0.118,0.031-0.24,0.047-0.361,0.047c-0.075,0-0.149-0.017-0.224-0.029l-0.081,28.527 l34.287-19.925l0.08-28.147L52.439,62.458C52.438,62.458,52.437,62.458,52.436,62.459z"/><path d="M90.27,29.843c0-0.072-0.017-0.14-0.028-0.209c-0.008-0.051-0.007-0.105-0.021-0.155c-0.02-0.076-0.057-0.145-0.089-0.215 c-0.018-0.04-0.029-0.083-0.05-0.121c-0.043-0.074-0.1-0.139-0.156-0.204c-0.023-0.027-0.04-0.06-0.066-0.086 c-0.086-0.087-0.185-0.163-0.294-0.226L48.971,5.188c-0.436-0.252-0.974-0.251-1.41,0.002L10.457,26.753 c-0.057,0.033-0.102,0.079-0.153,0.118c-0.045,0.036-0.096,0.065-0.137,0.106c-0.044,0.044-0.076,0.098-0.114,0.148 c-0.036,0.047-0.078,0.09-0.107,0.141c-0.03,0.053-0.047,0.112-0.07,0.168c-0.023,0.056-0.053,0.109-0.069,0.168 c-0.016,0.059-0.016,0.121-0.025,0.182c-0.008,0.061-0.024,0.119-0.025,0.181L9.73,37.799c-0.001,0.504,0.267,0.97,0.703,1.222 l0.921,0.532l-0.092,32.475c-0.001,0.504,0.267,0.97,0.703,1.222l37.346,21.562C49.529,94.937,49.771,95,50.014,95 c0.122,0,0.243-0.016,0.361-0.047c0.042-0.011,0.081-0.035,0.123-0.051c0.073-0.027,0.148-0.05,0.217-0.089 c0.001,0,0.001-0.001,0.002-0.002c0.001-0.001,0.002-0.001,0.003-0.001l37.104-21.562c0.432-0.251,0.698-0.712,0.7-1.212 l0.087-30.599l0.932-0.541c0.432-0.251,0.698-0.712,0.7-1.212l0.028-9.835c0-0.001,0-0.002,0-0.003 C90.27,29.844,90.27,29.844,90.27,29.843z M87.451,32.292l-0.019,6.576L53.146,58.794l0.018-6.468l0-0.108L82.242,35.32 L87.451,32.292z M50.351,52.218l-0.009,3.05l-0.01,3.542L13.465,37.524c0,0,0,0,0,0l-0.92-0.531l0.019-6.592L50.351,52.218z M48.27,8.032l37.788,21.817L58.964,45.594l-7.206,4.187L13.97,27.965L48.27,8.032z M14.162,41.174L48.7,61.115l-0.039,13.813 l-0.046,16.234L14.077,71.221L14.162,41.174z M85.714,71.221L51.427,91.146l0.081-28.527c0.074,0.012,0.149,0.029,0.224,0.029 c0.122,0,0.243-0.016,0.361-0.047c0.042-0.011,0.081-0.035,0.123-0.051c0.073-0.027,0.148-0.05,0.217-0.089 c0.001,0,0.001-0.001,0.002-0.002c0.001-0.001,0.002-0.001,0.003-0.001l33.355-19.384L85.714,71.221z"/></g></svg>