<svg xmlns="http://www.w3.org/2000/svg" xmlns:xlink="http://www.w3.org/1999/xlink" x="0" y="0" enable-background="new 0 0 24 24" version="1.1" viewBox="0 0 24 24" xml:space="preserve"><g><g><path fill="#000" d="M16.365,9.843c-1.221,0-2.214-0.993-2.214-2.213c0-1.22,0.993-2.213,2.214-2.213s2.214,0.993,2.214,2.213 C18.579,8.85,17.586,9.843,16.365,9.843z M16.365,6.216c-0.767,0-1.413,0.647-1.413,1.413s0.646,1.414,1.413,1.414 c0.779,0,1.413-0.634,1.413-1.414C17.778,6.863,17.132,6.216,16.365,6.216z"/></g><g><path fill="#000" d="M12.061,10.89c-0.567,0-1.048,0.482-1.048,1.048c0,0.567,0.482,1.048,1.048,1.048s1.048-0.482,1.048-1.048 C13.081,11.344,12.628,10.89,12.061,10.89z"/></g><g><path fill="#000" d="M5.176,14.757c-0.079,0-0.158-0.023-0.227-0.071c-0.182-0.126-0.227-0.375-0.102-0.557l2.519-3.639 c0.125-0.182,0.375-0.227,0.557-0.102c0.182,0.126,0.227,0.375,0.102,0.557l-2.519,3.639C5.428,14.696,5.303,14.757,5.176,14.757z"/></g><g><path fill="#000" d="M9.644,19.224c-0.127,0-0.252-0.061-0.33-0.173c-0.125-0.182-0.08-0.431,0.102-0.557l3.639-2.519 c0.182-0.125,0.431-0.08,0.557,0.102s0.08,0.431-0.102,0.557l-3.639,2.519C9.801,19.2,9.722,19.224,9.644,19.224z"/></g><g><path fill="#000" d="M11.173,22.876L11.173,22.876c-0.077,0-0.155-0.014-0.232-0.039c-0.155-0.052-0.355-0.178-0.432-0.481 l-1.141-3.119c-0.776,0.01-2.617-0.06-3.581-1.023c-0.981-0.98-1.042-2.845-1.023-3.581l-3.16-1.153 c-0.264-0.063-0.389-0.265-0.441-0.419c-0.089-0.273-0.008-0.479,0.076-0.604l0.983-1.684c0.017-0.03,0.038-0.057,0.063-0.081 c0.086-0.086,0.267-0.23,0.51-0.23l4.696-0.136c0.594-0.796,3.25-4.321,5.069-6.14c3.876-3.877,10.765-3.986,10.833-3.986 c0.047,0,0.103,0.009,0.146,0.025c0.106,0.039,0.191,0.122,0.233,0.227c0.1,0.249-0.156,7.191-3.955,10.991 c-1.819,1.819-5.346,4.477-6.141,5.069l-0.137,4.708c0.001,0.231-0.144,0.411-0.229,0.498c-0.024,0.023-0.052,0.045-0.081,0.063 l-1.705,0.996C11.431,22.837,11.306,22.876,11.173,22.876z M9.643,18.423c0.167,0,0.318,0.104,0.376,0.264l1.216,3.331l1.51-0.883 l0.137-4.842c0.003-0.123,0.063-0.237,0.163-0.31c0.042-0.031,4.234-3.136,6.206-5.108c3.1-3.1,3.641-8.362,3.732-9.86 c-1.497,0.087-6.739,0.615-9.858,3.734c-1.972,1.972-5.076,6.165-5.107,6.207c-0.073,0.099-0.188,0.159-0.31,0.162l-4.843,0.14 l-0.882,1.51l3.332,1.213c0.169,0.062,0.276,0.229,0.261,0.408c-0.001,0.023-0.174,2.307,0.777,3.258 c0.714,0.715,2.211,0.792,2.821,0.792c0.261,0,0.429-0.014,0.437-0.014C9.622,18.424,9.632,18.423,9.643,18.423z"/></g><g><path fill="#000" d="M4.918,19.482c-0.103,0-0.205-0.039-0.283-0.117c-0.156-0.156-0.156-0.41,0-0.566l2.492-2.492 c0.156-0.156,0.409-0.156,0.565,0s0.156,0.41,0,0.566l-2.492,2.492C5.123,19.443,5.021,19.482,4.918,19.482z"/></g><g><path fill="#000" d="M1.233,23.167c-0.103,0-0.205-0.039-0.283-0.117c-0.156-0.156-0.156-0.41,0-0.566l2.217-2.217 c0.156-0.156,0.409-0.156,0.565,0s0.156,0.41,0,0.566L1.516,23.05C1.438,23.128,1.336,23.167,1.233,23.167z"/></g><g><path fill="#000" d="M0.598,20.445c-0.103,0-0.205-0.039-0.283-0.117c-0.156-0.156-0.156-0.41,0-0.566l2.217-2.218 c0.156-0.156,0.409-0.156,0.565,0s0.156,0.41,0,0.566l-2.217,2.218C0.803,20.406,0.701,20.445,0.598,20.445z"/></g><g><path fill="#000" d="M3.956,23.803c-0.103,0-0.205-0.039-0.283-0.117c-0.156-0.156-0.156-0.41,0-0.566l2.217-2.218 c0.156-0.156,0.409-0.156,0.565,0s0.156,0.41,0,0.566l-2.217,2.218C4.16,23.764,4.058,23.803,3.956,23.803z"/></g></g></svg>