<svg xmlns="http://www.w3.org/2000/svg" xmlns:xlink="http://www.w3.org/1999/xlink" x="0" y="0" enable-background="new 0 0 100 100" version="1.1" viewBox="0 0 100 100" xml:space="preserve"><g><path d="M60.0625038,23.3344727H39.9374962c-1.4842644,0-2.6874962-1.2032337-2.6874962-2.6874981v-0.0000038 c0-1.4842644,1.2032318-2.6874981,2.6874962-2.6874981h20.1250076c1.4842644,0,2.6874962,1.2032337,2.6874962,2.6874981v0.0000038 C62.75,22.1312389,61.5467682,23.3344727,60.0625038,23.3344727z"/><path d="M60.0625153,17.959465h-20.125c-1.4842834,0-2.6875153,1.2032471-2.6875153,2.6875076 c0,1.4842625,1.2032318,2.6874924,2.6875153,2.6874924h20.125c1.4842529,0,2.6874847-1.2032299,2.6874847-2.6874924 C62.75,19.1627121,61.5467682,17.959465,60.0625153,17.959465L60.0625153,17.959465z"/><g><path d="M80.3918152,30.2055664H19.6081848c-0.5512047,0-0.998045-0.4468403-0.998045-0.998045v-0.0000038 c0-0.5512047,0.4468403-0.998045,0.998045-0.998045h60.7836304c0.5512009,0,0.9980469,0.4468403,0.9980469,0.998045v0.0000038 C81.3898621,29.7587261,80.9430161,30.2055664,80.3918152,30.2055664z"/><path d="M80.3918152,28.2094803H19.6081848c-0.5512085,0-0.9980469,0.4468384-0.9980469,0.9980392 s0.4468384,0.9980392,0.9980469,0.9980392h60.7836304c0.5512085,0,0.9980469-0.4468384,0.9980469-0.9980392 S80.9430237,28.2094803,80.3918152,28.2094803L80.3918152,28.2094803z"/></g><g><path d="M80.3918152,36.7055664H19.6081848c-0.5512047,0-0.998045-0.4468422-0.998045-0.9980469l0,0 c0-0.5512047,0.4468403-0.9980469,0.998045-0.9980469h60.7836304c0.5512009,0,0.9980469,0.4468422,0.9980469,0.9980469l0,0 C81.3898621,36.2587242,80.9430161,36.7055664,80.3918152,36.7055664z"/><path d="M80.3918152,34.7094803H19.6081848c-0.5512085,0-0.9980469,0.4468384-0.9980469,0.9980392 s0.4468384,0.9980392,0.9980469,0.9980392h60.7836304c0.5512085,0,0.9980469-0.4468384,0.9980469-0.9980392 S80.9430237,34.7094803,80.3918152,34.7094803L80.3918152,34.7094803z"/></g><g><path d="M80.3918152,43.2055664H19.6081848c-0.5512047,0-0.998045-0.4468422-0.998045-0.9980469l0,0 c0-0.5512047,0.4468403-0.9980469,0.998045-0.9980469h60.7836304c0.5512009,0,0.9980469,0.4468422,0.9980469,0.9980469l0,0 C81.3898621,42.7587242,80.9430161,43.2055664,80.3918152,43.2055664z"/><path d="M80.3918152,41.2094803H19.6081848c-0.5512085,0-0.9980469,0.4468384-0.9980469,0.9980392 s0.4468384,0.9980392,0.9980469,0.9980392h60.7836304c0.5512085,0,0.9980469-0.4468384,0.9980469-0.9980392 S80.9430237,41.2094803,80.3918152,41.2094803L80.3918152,41.2094803z"/></g><g><path d="M80.3918152,49.7055664H19.6081848c-0.5512047,0-0.998045-0.4468422-0.998045-0.9980469l0,0 c0-0.5512047,0.4468403-0.9980469,0.998045-0.9980469h60.7836304c0.5512009,0,0.9980469,0.4468422,0.9980469,0.9980469l0,0 C81.3898621,49.2587242,80.9430161,49.7055664,80.3918152,49.7055664z"/><path d="M80.3918152,47.7094803H19.6081848c-0.5512085,0-0.9980469,0.4468384-0.9980469,0.9980392 s0.4468384,0.9980392,0.9980469,0.9980392h60.7836304c0.5512085,0,0.9980469-0.4468384,0.9980469-0.9980392 S80.9430237,47.7094803,80.3918152,47.7094803L80.3918152,47.7094803z"/></g><g><path d="M62.0718384,63.0876579l-1.7085304-2.4752312l-0.3625412-2.9857407l-2.6631393-1.397747l-1.7085838-2.475235h-3.0076332 l-2.6631432-1.397747l-2.6631966,1.397747h-3.007637l-1.70858,2.475235l-2.6631432,1.397747l-0.3625412,2.9857407 l-1.7085266,2.4752312l1.0665359,2.8122444l-0.3625412,2.9857407l2.2512817,1.9944305l1.0665359,2.8122406l2.9202652,0.7197723 l2.2512283,1.9944305l2.9203186-0.7197723l2.9202652,0.7197723l2.2512245-1.9944305l2.9203186-0.7197723l1.0665359-2.8122406 l2.2512283-1.9944305l-0.3625412-2.9857407L62.0718384,63.0876579z M49.9582672,72.4318008 c-4.4391518,0-8.0505638-3.611412-8.0505638-8.0505676c0-4.4391479,3.611412-8.05056,8.0505638-8.05056 s8.0505638,3.611412,8.0505638,8.05056C58.008831,68.8203888,54.3974152,72.4318008,49.9582672,72.4318008z"/></g><polygon points="49.715 77.576 43.143 89.662 41.546 82.745 35.421 85.276 40.655 75.641 39.856 73.4 31.466 88.831 40.287 85.187 42.467 94.625 51.506 78.014"/><path d="M60.0946426,73.3091812c-0.8241234,2.1726456-0.6757851,1.77771-0.8328285,2.2072754l5.3176155,9.7593613 l-6.1262703-2.530899l-1.5969315,6.9171524l-4.7591972-8.7533722l-1.0602493,1.7671204L57.5335007,94.625l2.1788177-9.4380722 l8.8214951,3.644371L60.0946426,73.3091812z"/><polygon points="49.938 59.379 51.478 62.5 54.921 63 52.429 65.428 53.017 68.858 49.938 67.239 46.858 68.858 47.446 65.428 44.955 63 48.398 62.5"/><path d="M83.1413574,9.125H15.4836426c-4.34021,0-7.8586426,3.5184326-7.8586426,7.8586426v45.4545898 c0,4.34021,3.5184326,7.8586426,7.8586426,7.8586426H36.25v-3H15.4836426c-2.6790771,0-4.8586426-2.1795654-4.8586426-4.8586426 V16.9836426c0-2.6790771,2.1795654-4.8586426,4.8586426-4.8586426h67.6577148C85.8204346,12.125,88,14.3045654,88,16.9836426 v45.4545898c0,2.6790771-2.1795654,4.8586426-4.8586426,4.8586426H63.75v3h19.3913574 C87.4815674,70.296875,91,66.7784424,91,62.4382324V16.9836426C91,12.6434326,87.4815674,9.125,83.1413574,9.125z"/></g></svg>